<svg width="24" height="24" viewBox="0 0 24 24" xmlns="http://www.w3.org/2000/svg">
    <path d="M19 5h-2V3H7v2H5c-1.1 0-2 .9-2 2v1c0 2.55 1.92 4.63 4.39 4.94.63 1.5 2.23 2.63 3.86 2.96v3.6H7V21h10v-1.5h-4.25v-3.6c1.63-.33 3.23-1.46 3.86-2.96C19.08 12.63 21 10.55 21 8V7c0-1.1-.9-2-2-2zM4.5 8V6.496H7v4.932C5.84 11.008 4.5 9.3 4.5 8zm7.5 6.381c-1.65 0-3.493-1.731-3.493-3.381V4.5h6.99V11c0 1.65-1.847 3.381-3.497 3.381zM19.5 8c0 1.3-1.34 3.008-2.5 3.428V6.494h2.5V8z" fill="#FFF" fill-rule="evenodd"/>
</svg>
