<?xml version="1.0" encoding="UTF-8"?>
<svg width="15px" height="15px" viewBox="0 0 15 15" version="1.1" xmlns="http://www.w3.org/2000/svg" xmlns:xlink="http://www.w3.org/1999/xlink">
    <!-- Generator: Sketch 61.2 (89653) - https://sketch.com -->
    <title>Icon / Social / Instagram</title>
    <desc>Created with Sketch.</desc>
    <g id="Symbols" stroke="none" stroke-width="1" fill="none" fill-rule="evenodd">
        <g id="Footer-/-Desktop" transform="translate(-245.000000, -350.000000)" fill="#757575">
            <g id="Group-6" transform="translate(113.000000, 345.000000)">
                <g id="Icon-/-Social-/-Instagram" transform="translate(128.000000, 1.000000)">
                    <path d="M11.5,9.25 C10.2578125,9.25 9.25,10.2578125 9.25,11.5 C9.25,12.743125 10.2578125,13.7509375 11.5,13.7509375 C12.7421875,13.7509375 13.7490625,12.743125 13.7490625,11.5 C13.7490625,10.2578125 12.7421875,9.25 11.5,9.25 M11.5,7.75 C13.5709375,7.75 15.25,9.4290625 15.25,11.5 C15.25,13.5709375 13.5709375,15.25 11.5,15.25 C9.4290625,15.25 7.75,13.5709375 7.75,11.5 C7.75,9.4290625 9.4290625,7.75 11.5,7.75 M15.4375,6.625 C15.955,6.625 16.375,7.045 16.375,7.5625 C16.375,8.0809375 15.955,8.5 15.4375,8.5 C14.9190625,8.5 14.5,8.0809375 14.5,7.5625 C14.5,7.045 14.9190625,6.625 15.4375,6.625 M8.1990625,5.5 C6.709375,5.5 5.5,6.709375 5.5,8.2009375 L5.5,14.8009375 C5.5,16.2934375 6.7075,17.5009375 8.1990625,17.5009375 L14.8,17.5009375 C16.290625,17.5009375 17.4990625,16.2915625 17.4990625,14.8009375 L17.4990625,8.2009375 C17.4990625,6.7075 16.2925,5.5 14.8,5.5 L8.1990625,5.5 M8.35,4 L14.6490625,4 C17.05,4 19,5.95 19,8.35 L19,14.6509375 C19,17.0528125 17.0528125,19 14.6490625,19 L8.35,19 C5.95,19 4,17.05 4,14.6509375 L4,8.35 C4,5.948125 5.9471875,4 8.35,4" id="Instagram"></path>
                </g>
            </g>
        </g>
    </g>
</svg>