<?xml version="1.0" encoding="UTF-8"?>
<svg width="15px" height="15px" viewBox="0 0 15 15" version="1.1" xmlns="http://www.w3.org/2000/svg" xmlns:xlink="http://www.w3.org/1999/xlink">
    <!-- Generator: Sketch 61.2 (89653) - https://sketch.com -->
    <title>Icon / Social / Rss</title>
    <desc>Created with Sketch.</desc>
    <g id="Symbols" stroke="none" stroke-width="1" fill="none" fill-rule="evenodd">
        <g id="Footer-/-Desktop" transform="translate(-213.000000, -349.000000)" fill="#757575">
            <g id="Group-6" transform="translate(113.000000, 345.000000)">
                <g id="Icon-/-Social-/-Rss" transform="translate(96.000000, 0.000000)">
                    <path d="M4,4 C12.2697295,4 19,10.7322222 19,19 L19,19 L16.1144868,19 C16.1144868,12.3155556 10.6791404,6.87666667 4,6.87666667 L4,6.87666667 Z M4,8.41176471 C9.83719548,8.41176471 14.5882353,13.1606726 14.5882353,19 L14.5882353,19 L11.4997029,19 C11.4997029,16.9913949 10.7165775,15.1003841 9.30124777,13.6856894 C7.88472965,12.2686191 6.00237671,11.4858451 4,11.4858451 L4,11.4858451 Z M5.76323407,15.4705882 C6.73953785,15.4705882 7.52843055,16.2680286 7.52941176,17.2357864 C7.52941176,18.2124046 6.73953785,19 5.76323407,19 C4.79085512,19 4,18.2124046 4,17.2357864 C4,16.2660596 4.79085512,15.4705882 5.76323407,15.4705882 Z" id="Combined-Shape"></path>
                </g>
            </g>
        </g>
    </g>
</svg>