<?xml version="1.0" encoding="UTF-8"?>
<svg width="80px" height="88px" viewBox="0 0 80 88" version="1.1" xmlns="http://www.w3.org/2000/svg" xmlns:xlink="http://www.w3.org/1999/xlink">
    <title>Shirt-desktop</title>
    <g id="Symbols" stroke="none" stroke-width="1" fill="none" fill-rule="evenodd">
        <path d="M79.7537379,36.4643036 C76.2517668,29.7838241 72.7497958,23.0914997 69.2359937,16.3991754 C68.7982474,15.558193 68.4196559,14.6224521 67.8044448,13.9117628 C66.3137409,12.170574 64.5272624,10.7491953 62.5396572,9.60024761 C59.7357142,7.98935184 56.6951515,6.93516269 53.6190958,5.98757694 C53.3469832,5.90466319 53.0275467,5.71514604 52.9092368,5.49009442 C51.6551526,3.18035416 49.7385333,1.6879066 47.2303649,1.00090693 C42.3205068,-0.337557942 37.3751558,-0.337557942 32.4771287,1.02459657 C30.3475517,1.61683767 28.5137493,2.77763021 27.4016369,4.73202582 C26.8455807,5.71514604 26.0883977,6.08233552 25.1064261,6.40214571 C21.4033284,7.57478307 17.7948785,8.97247205 14.7779777,11.4954191 C13.7131892,12.3956256 12.5064289,13.3076769 11.8557249,14.492159 C7.88051448,21.8241038 4.05910688,29.2271175 0.190375346,36.6182863 C-0.164554153,37.305286 -0.0344133367,37.6843203 0.67544566,38.0159753 C5.36051504,40.1717329 10.0337534,42.3393353 14.7306538,44.4950929 C15.4286818,44.814903 15.7244564,44.7082997 16.1030479,44.0568344 L17.0258645,42.493318 C17.1678363,42.7657489 17.1678363,42.9789557 17.1678363,43.2040073 C17.2624842,56.9440006 16.9903716,70.6721492 16.2568506,84.3884529 C16.1976957,85.4900214 16.3041746,85.6558489 17.3571321,85.8335212 C27.2478341,87.4799514 37.1858601,88.5222958 47.2421958,87.7286927 C52.4596595,87.3141239 57.6416301,86.7218828 62.7881079,85.7979867 C63.6872626,85.6321592 63.8174034,85.4544869 63.7700795,84.5305908 C63.6872626,82.789402 63.5807837,81.0482132 63.4979669,79.3070244 C62.9774036,67.6635644 62.7881079,56.0082597 62.8354318,44.352955 C62.8354318,43.7488691 62.8354318,43.156628 62.8354318,42.422249 C63.0128965,42.5762317 63.0483895,42.5880765 63.0720515,42.623611 C63.3205021,43.0381798 63.5807837,43.4645934 63.8174034,43.8910069 C64.3261357,44.7556789 64.5390934,44.8267479 65.4264171,44.4121791 C70.0050077,42.3038008 74.5954292,40.1954225 79.1740197,38.0751994 C80.0850054,37.6606306 80.1914843,37.3289756 79.7419069,36.4524588 L79.7537379,36.4643036 Z M14.9554425,42.8368178 C10.5779787,40.8231981 6.24783878,38.8214232 1.89403694,36.8196483 C2.22530447,36.1800279 2.53291003,35.5877868 2.87600855,34.9363216 C7.20614843,37.0565447 11.5007954,39.1530782 15.8664282,41.2851461 C15.5588226,41.8181631 15.263048,42.3156456 14.9554425,42.8368178 L14.9554425,42.8368178 Z M29.0579745,5.24135316 C29.6731857,4.2345433 30.5486784,3.5830781 31.542481,3.08559558 C33.4236074,2.16169947 35.4585365,1.90111339 37.5171276,1.74713071 C40.6050142,1.53392391 43.6810699,1.64052731 46.6861396,2.48150966 C48.2833224,2.9316129 49.6675474,3.72521596 50.673181,5.17028423 C43.4562812,3.23957826 36.2630434,3.29880237 29.0579745,5.22950834 L29.0579745,5.24135316 Z M65.0714876,42.8368178 C64.7638821,42.3274905 64.4799385,41.8300079 64.1486709,41.2851461 C68.4906418,39.164923 72.7852887,37.0683895 77.1390906,34.9363216 C77.4703581,35.5640972 77.7779637,36.1563383 78.1328932,36.8196483 C73.7554294,38.833268 69.4489514,40.8231981 65.0714876,42.8368178 L65.0714876,42.8368178 Z" id="Shirt-desktop" fill="#F5F5F5"></path>
    </g>
</svg>