<?xml version="1.0" encoding="UTF-8"?>
<svg width="18px" height="15px" viewBox="0 0 18 15" version="1.1" xmlns="http://www.w3.org/2000/svg" xmlns:xlink="http://www.w3.org/1999/xlink">
    <!-- Generator: Sketch 61.2 (89653) - https://sketch.com -->
    <title>Icon / Social / Telegram</title>
    <desc>Created with Sketch.</desc>
    <g id="Symbols" stroke="none" stroke-width="1" fill="none" fill-rule="evenodd">
        <g id="Footer-/-Desktop" transform="translate(-148.000000, -350.000000)" fill="#757575">
            <g id="Group-6" transform="translate(113.000000, 345.000000)">
                <g id="Icon-/-Social-/-Telegram" transform="translate(32.000000, 1.000000)">
                    <path d="M19.9954967,4.03218484 L3.30618316,10.3168251 C2.89529574,10.4723855 2.89871032,11.0412922 3.31187412,11.1912968 L7.37749699,12.6735653 L8.95161693,17.6159415 C9.05291604,17.9315069 9.44900696,18.0481772 9.71192938,17.8392818 L11.9792084,16.0347811 C12.2159524,15.8458863 12.5551337,15.8369972 12.8032596,16.0125582 L16.8905082,18.9104263 C17.1739181,19.1093214 17.5711472,18.9604279 17.6428533,18.6270841 L20.636299,4.56442365 C20.7148343,4.19996785 20.3494745,3.89884735 19.9954967,4.03218484 M16.8131111,7.32117623 L10.2537089,13.2724728 C10.0226559,13.4824794 9.87355269,13.7624881 9.83143957,14.066942 L9.60949208,15.6825479 C9.57989908,15.8992213 9.26803439,15.9203331 9.206572,15.7114377 L8.34837502,12.7635681 C8.25049048,12.4280021 8.39390271,12.0679908 8.69780005,11.8846518 L16.6457968,7.1067251 C16.7892091,7.02005574 16.9360359,7.20895051 16.8131111,7.32117623" id="Telegram"></path>
                </g>
            </g>
        </g>
    </g>
</svg>