<?xml version="1.0" encoding="UTF-8"?>
<svg width="19px" height="15px" viewBox="0 0 19 15" version="1.1" xmlns="http://www.w3.org/2000/svg" xmlns:xlink="http://www.w3.org/1999/xlink">
    <!-- Generator: Sketch 61.2 (89653) - https://sketch.com -->
    <title>Icon / Social / Twitter</title>
    <desc>Created with Sketch.</desc>
    <g id="Symbols" stroke="none" stroke-width="1" fill="none" fill-rule="evenodd">
        <g id="Footer-/-Desktop" transform="translate(-180.000000, -350.000000)" fill="#757575">
            <g id="Group-6" transform="translate(113.000000, 345.000000)">
                <g id="Icon-/-Social-/-Twitter" transform="translate(64.000000, 1.000000)">
                    <path d="M19.3475791,6.37111111 C20.1324591,5.90333333 20.7333829,5.16 21.0176789,4.27666667 C20.2818539,4.71111111 19.4679868,5.02555556 18.602835,5.19666667 C17.9093757,4.45888889 16.9227012,4 15.8289977,4 C13.7296666,4 12.0272351,5.69666667 12.0272351,7.78777778 C12.0272351,8.08444444 15.2838182,8.81 12.1253451,8.65111111 C8.96687195,8.49222222 6.16627734,6.98444444 4.29103844,4.69222222 C3.96326184,5.25111111 3.77707581,5.90222222 3.77707581,6.59666667 C3.77707581,7.91111111 4.4493523,9.07111111 5.46835846,9.74888889 C4.84513697,9.72888889 4.25870673,9.55777778 3.74585899,9.27333333 L3.74585899,9.32111111 C3.74585899,11.1566667 5.05696539,12.6877778 6.79395838,13.0355556 C6.47621576,13.1211111 6.14063495,13.1677778 5.79390529,13.1677778 C5.5475154,13.1677778 5.3100446,13.1444444 5.07703334,13.0977778 C5.56200892,14.6033333 6.96565088,15.6988889 8.62794649,15.7288889 C7.32798896,16.7444444 5.68799108,17.3477778 3.90640263,17.3477778 C3.59980888,17.3477778 3.29767467,17.3288889 3,17.2955556 C4.68347845,18.3733333 6.68023997,19 8.82639626,19 C15.8189637,19 19.6419091,13.2288889 19.6419091,8.22222222 L19.6285305,7.73222222 C20.3755044,7.20111111 21.0210236,6.53444444 21.5294118,5.77555556 C20.8482162,6.07666667 20.1157358,6.28 19.3475791,6.37111111 Z" id="Twitter"></path>
                </g>
            </g>
        </g>
    </g>
</svg>