<svg width="24" height="24" viewBox="0 0 24 24" xmlns="http://www.w3.org/2000/svg">
    <path d="M12 3c4.968 0 9 4.032 9 9s-4.032 9-9 9-9-4.032-9-9 4.032-9 9-9zm0 1.8c-3.969 0-7.2 3.231-7.2 7.2 0 3.969 3.231 7.2 7.2 7.2 3.969 0 7.2-3.231 7.2-7.2 0-3.969-3.231-7.2-7.2-7.2zm.8 10.9v1.5h-1.5v-1.5h1.5zm-.592-8.691a3.495 3.495 0 0 0-2.624.922A3.368 3.368 0 0 0 8.5 10.424h1.47c0-.547.209-1.059.629-1.435.42-.375.944-.58 1.504-.546 1.05.034 1.889.888 1.959 1.912.034.854-.49 1.64-1.295 1.947-.91.342-1.504 1.23-1.504 2.22V15h1.47v-.478c0-.376.245-.751.56-.888 1.398-.546 2.273-1.878 2.203-3.347-.035-1.776-1.504-3.21-3.288-3.279z" fill="#FFF" fill-rule="evenodd"/>
</svg>
